{
  "accessors": [
    {
      "bufferView": 2,
      "componentType": 5126,
      "count": 1243,
      "max": [
        5.9364094734191895,
        8.439903259277344,
        1.6761760711669922
      ],
      "min": [
        -5.213253974914551,
        1.589010238647461,
        -1.685840129852295
      ],
      "type": "VEC3"
    },
    {
      "bufferView": 2,
      "byteOffset": 14916,
      "componentType": 5126,
      "count": 1243,
      "max": [
        1.0,
        1.0,
        1.0
      ],
      "min": [
        -1.0,
        -1.0,
        -1.0
      ],
      "type": "VEC3"
    },
    {
      "bufferView": 1,
      "componentType": 5126,
      "count": 1243,
      "max": [
        0.875,
        1.0
      ],
      "min": [
        0.125,
        0.0
      ],
      "type": "VEC2"
    },
    {
      "bufferView": 0,
      "componentType": 5125,
      "count": 3180,
      "type": "SCALAR"
    },
    {
      "bufferView": 2,
      "byteOffset": 29832,
      "componentType": 5126,
      "count": 1178,
      "max": [
        5.934460163116455,
        3.3881096839904785,
        1.702625036239624
      ],
      "min": [
        -3.951122760772705,
        0.999406099319458,
        -1.7122886180877686
      ],
      "type": "VEC3"
    },
    {
      "bufferView": 2,
      "byteOffset": 43968,
      "componentType": 5126,
      "count": 1178,
      "max": [
        1.0,
        1.0,
        1.0
      ],
      "min": [
        -1.0,
        -1.0,
        -1.0
      ],
      "type": "VEC3"
    },
    {
      "bufferView": 1,
      "byteOffset": 9944,
      "componentType": 5126,
      "count": 1178,
      "max": [
        0.875,
        1.0
      ],
      "min": [
        0.125,
        -7.450580596923828e-09
      ],
      "type": "VEC2"
    },
    {
      "bufferView": 0,
      "byteOffset": 12720,
      "componentType": 5125,
      "count": 3258,
      "type": "SCALAR"
    },
    {
      "bufferView": 2,
      "byteOffset": 58104,
      "componentType": 5126,
      "count": 186,
      "max": [
        -1.859923243522644,
        8.455618858337402,
        0.960847795009613
      ],
      "min": [
        -5.3465752601623535,
        1.001889944076538,
        -0.9625521898269653
      ],
      "type": "VEC3"
    },
    {
      "bufferView": 2,
      "byteOffset": 60336,
      "componentType": 5126,
      "count": 186,
      "max": [
        1.0,
        1.0,
        1.0
      ],
      "min": [
        -1.0,
        -1.0,
        -1.0
      ],
      "type": "VEC3"
    },
    {
      "bufferView": 1,
      "byteOffset": 19368,
      "componentType": 5126,
      "count": 186,
      "max": [
        0.65625,
        1.0
      ],
      "min": [
        0.34375,
        1.4901161193847656e-08
      ],
      "type": "VEC2"
    },
    {
      "bufferView": 0,
      "byteOffset": 25752,
      "componentType": 5125,
      "count": 384,
      "type": "SCALAR"
    },
    {
      "bufferView": 2,
      "byteOffset": 62568,
      "componentType": 5126,
      "count": 51,
      "max": [
        5.891956329345703,
        1.7683943510055542,
        1.9757057428359985
      ],
      "min": [
        -5.27247953414917,
        0.9492590427398682,
        -1.975705623626709
      ],
      "type": "VEC3"
    },
    {
      "bufferView": 2,
      "byteOffset": 63180,
      "componentType": 5126,
      "count": 51,
      "max": [
        0.7008503675460815,
        -1.1622211104622693e-07,
        0.907693088054657
      ],
      "min": [
        -1.0,
        -0.7088966965675354,
        -0.9188978672027588
      ],
      "type": "VEC3"
    },
    {
      "bufferView": 1,
      "byteOffset": 20856,
      "componentType": 5126,
      "count": 51,
      "max": [
        0.53125,
        0.6884398460388184
      ],
      "min": [
        0.40625,
        0.3125
      ],
      "type": "VEC2"
    },
    {
      "bufferView": 0,
      "byteOffset": 27288,
      "componentType": 5125,
      "count": 135,
      "type": "SCALAR"
    },
    {
      "bufferView": 2,
      "byteOffset": 63792,
      "componentType": 5126,
      "count": 354,
      "max": [
        5.74693489074707,
        3.3881096839904785,
        1.702625036239624
      ],
      "min": [
        -5.27247953414917,
        0.12938368320465088,
        -1.7122886180877686
      ],
      "type": "VEC3"
    },
    {
      "bufferView": 2,
      "byteOffset": 68040,
      "componentType": 5126,
      "count": 354,
      "max": [
        1.0,
        1.0,
        1.0
      ],
      "min": [
        -1.0,
        -1.0,
        -1.0
      ],
      "type": "VEC3"
    },
    {
      "bufferView": 1,
      "byteOffset": 21264,
      "componentType": 5126,
      "count": 354,
      "max": [
        0.875,
        1.0
      ],
      "min": [
        0.125,
        0.0
      ],
      "type": "VEC2"
    },
    {
      "bufferView": 0,
      "byteOffset": 27828,
      "componentType": 5125,
      "count": 792,
      "type": "SCALAR"
    },
    {
      "bufferView": 2,
      "byteOffset": 72288,
      "componentType": 5126,
      "count": 125,
      "max": [
        5.76991605758667,
        3.172529935836792,
        1.9143495559692383
      ],
      "min": [
        -5.27247953414917,
        1.6563657522201538,
        -1.9143494367599487
      ],
      "type": "VEC3"
    },
    {
      "bufferView": 2,
      "byteOffset": 73788,
      "componentType": 5126,
      "count": 125,
      "max": [
        1.0,
        1.0,
        1.0
      ],
      "min": [
        -1.0,
        -1.0,
        -1.0
      ],
      "type": "VEC3"
    },
    {
      "bufferView": 1,
      "byteOffset": 24096,
      "componentType": 5126,
      "count": 125,
      "max": [
        0.625,
        0.6884398460388184
      ],
      "min": [
        0.3749999701976776,
        0.25
      ],
      "type": "VEC2"
    },
    {
      "bufferView": 0,
      "byteOffset": 30996,
      "componentType": 5125,
      "count": 303,
      "type": "SCALAR"
    },
    {
      "bufferView": 2,
      "byteOffset": 75288,
      "componentType": 5126,
      "count": 68,
      "max": [
        2.663515090942383,
        3.3495116233825684,
        1.6644713878631592
      ],
      "min": [
        -1.2479802370071411,
        2.1642613410949707,
        -1.6741352081298828
      ],
      "type": "VEC3"
    },
    {
      "bufferView": 2,
      "byteOffset": 76104,
      "componentType": 5126,
      "count": 68,
      "max": [
        1.0,
        0.9808143973350525,
        0.9586648941040039
      ],
      "min": [
        0.19494418799877167,
        -0.9341848492622375,
        -0.9586650133132935
      ],
      "type": "VEC3"
    },
    {
      "bufferView": 1,
      "byteOffset": 25096,
      "componentType": 5126,
      "count": 68,
      "max": [
        0.65625,
        0.3125
      ],
      "min": [
        0.34375,
        1.4901161193847656e-08
      ],
      "type": "VEC2"
    },
    {
      "bufferView": 0,
      "byteOffset": 32208,
      "componentType": 5125,
      "count": 288,
      "type": "SCALAR"
    },
    {
      "bufferView": 2,
      "byteOffset": 76920,
      "componentType": 5126,
      "count": 76,
      "max": [
        2.0119762420654297,
        2.9314465522766113,
        1.1742068529129028
      ],
      "min": [
        -1.2381224632263184,
        2.3093855381011963,
        -1.1742068529129028
      ],
      "type": "VEC3"
    },
    {
      "bufferView": 2,
      "byteOffset": 77832,
      "componentType": 5126,
      "count": 76,
      "max": [
        1.0,
        0.0,
        1.0
      ],
      "min": [
        -6.074098450881138e-07,
        0.0,
        -1.0
      ],
      "type": "VEC3"
    },
    {
      "bufferView": 1,
      "byteOffset": 25640,
      "componentType": 5126,
      "count": 76,
      "max": [
        0.875,
        1.0
      ],
      "min": [
        0.34375,
        -7.450580596923828e-09
      ],
      "type": "VEC2"
    },
    {
      "bufferView": 0,
      "byteOffset": 33360,
      "componentType": 5125,
      "count": 192,
      "type": "SCALAR"
    },
    {
      "bufferView": 2,
      "byteOffset": 78744,
      "componentType": 5126,
      "count": 668,
      "max": [
        2.0280709266662598,
        2.9666013717651367,
        1.2063859701156616
      ],
      "min": [
        -1.2743905782699585,
        1.667428731918335,
        -1.2063859701156616
      ],
      "type": "VEC3"
    },
    {
      "bufferView": 2,
      "byteOffset": 86760,
      "componentType": 5126,
      "count": 668,
      "max": [
        1.0,
        1.0,
        1.0
      ],
      "min": [
        -1.0,
        -1.0,
        -1.0
      ],
      "type": "VEC3"
    },
    {
      "bufferView": 1,
      "byteOffset": 26248,
      "componentType": 5126,
      "count": 668,
      "max": [
        0.875,
        1.0
      ],
      "min": [
        0.125,
        -7.450580596923828e-09
      ],
      "type": "VEC2"
    },
    {
      "bufferView": 0,
      "byteOffset": 34128,
      "componentType": 5125,
      "count": 1404,
      "type": "SCALAR"
    },
    {
      "bufferView": 2,
      "byteOffset": 94776,
      "componentType": 5126,
      "count": 493,
      "max": [
        6.110195159912109,
        2.4566171169281006,
        1.9757057428359985
      ],
      "min": [
        -5.333761215209961,
        1.6306986808776855,
        -1.975705623626709
      ],
      "type": "VEC3"
    },
    {
      "bufferView": 2,
      "byteOffset": 100692,
      "componentType": 5126,
      "count": 493,
      "max": [
        1.0,
        1.0,
        1.0
      ],
      "min": [
        -1.0,
        -0.9999999403953552,
        -1.0
      ],
      "type": "VEC3"
    },
    {
      "bufferView": 1,
      "byteOffset": 31592,
      "componentType": 5126,
      "count": 493,
      "max": [
        0.875,
        1.0
      ],
      "min": [
        0.125,
        0.0
      ],
      "type": "VEC2"
    },
    {
      "bufferView": 0,
      "byteOffset": 39744,
      "componentType": 5125,
      "count": 1158,
      "type": "SCALAR"
    },
    {
      "bufferView": 2,
      "byteOffset": 106608,
      "componentType": 5126,
      "count": 12,
      "max": [
        5.79653263092041,
        1.7748554944992065,
        0.8812796473503113
      ],
      "min": [
        -1.6371442079544067,
        1.0634374618530273,
        -0.8812796473503113
      ],
      "type": "VEC3"
    },
    {
      "bufferView": 2,
      "byteOffset": 106752,
      "componentType": 5126,
      "count": 12,
      "max": [
        0.0,
        0.49850666522979736,
        1.2014322869902117e-08
      ],
      "min": [
        -0.9686222672462463,
        -1.0,
        -0.014776351861655712
      ],
      "type": "VEC3"
    },
    {
      "bufferView": 1,
      "byteOffset": 35536,
      "componentType": 5126,
      "count": 12,
      "max": [
        0.875,
        1.0
      ],
      "min": [
        0.375,
        0.25
      ],
      "type": "VEC2"
    },
    {
      "bufferView": 0,
      "byteOffset": 44376,
      "componentType": 5125,
      "count": 24,
      "type": "SCALAR"
    }
  ],
  "asset": {
    "extras": {
      "author": "MariiaZhk (https://sketchfab.com/MariiaZ)",
      "license": "CC-BY-4.0 (http://creativecommons.org/licenses/by/4.0/)",
      "source": "https://sketchfab.com/3d-models/boat-draft-321f6cd84bed4a27ba81171dc72f9eaf",
      "title": "Boat Draft"
    },
    "generator": "Sketchfab-14.28.0",
    "version": "2.0"
  },
  "bufferViews": [
    {
      "buffer": 0,
      "byteLength": 44472,
      "name": "floatBufferViews",
      "target": 34963
    },
    {
      "buffer": 0,
      "byteLength": 35632,
      "byteOffset": 44472,
      "byteStride": 8,
      "name": "floatBufferViews",
      "target": 34962
    },
    {
      "buffer": 0,
      "byteLength": 106896,
      "byteOffset": 80104,
      "byteStride": 12,
      "name": "floatBufferViews",
      "target": 34962
    }
  ],
  "buffers": [
    {
      "byteLength": 187000,
      "uri": "scene.bin"
    }
  ],
  "materials": [
    {
      "doubleSided": true,
      "name": "standardSurface1",
      "pbrMetallicRoughness": {
        "baseColorFactor": [
          0.18374990304729796,
          0.18374990304729796,
          0.18374990304729796,
          1.0
        ],
        "metallicFactor": 0.0,
        "roughnessFactor": 0.6
      }
    },
    {
      "doubleSided": true,
      "name": "lambert5",
      "pbrMetallicRoughness": {
        "baseColorFactor": [
          0.666074,
          0.627376,
          0.438387,
          1.0
        ],
        "metallicFactor": 0.0,
        "roughnessFactor": 0.6
      }
    },
    {
      "doubleSided": true,
      "name": "lambert7",
      "pbrMetallicRoughness": {
        "baseColorFactor": [
          0.722481,
          0.633794,
          0.368845,
          1.0
        ],
        "metallicFactor": 0.0,
        "roughnessFactor": 0.6
      }
    },
    {
      "doubleSided": true,
      "name": "lambert3",
      "pbrMetallicRoughness": {
        "baseColorFactor": [
          0.554839,
          0.494434,
          0.286031,
          1.0
        ],
        "metallicFactor": 0.0,
        "roughnessFactor": 0.6
      }
    },
    {
      "doubleSided": true,
      "name": "lambert4",
      "pbrMetallicRoughness": {
        "baseColorFactor": [
          0.4,
          0.118274,
          0.0512001,
          1.0
        ],
        "metallicFactor": 0.0,
        "roughnessFactor": 0.6
      }
    },
    {
      "doubleSided": true,
      "name": "lambert6",
      "pbrMetallicRoughness": {
        "baseColorFactor": [
          0.391317,
          0.289795,
          0.166723,
          1.0
        ],
        "metallicFactor": 0.0,
        "roughnessFactor": 0.6
      }
    },
    {
      "doubleSided": true,
      "name": "lambert10",
      "pbrMetallicRoughness": {
        "baseColorFactor": [
          0.059807,
          0.0589356,
          0.0726572,
          1.0
        ],
        "metallicFactor": 0.0,
        "roughnessFactor": 0.6
      }
    },
    {
      "doubleSided": true,
      "name": "lambert8",
      "pbrMetallicRoughness": {
        "baseColorFactor": [
          0.17992,
          0.26,
          0.244601,
          1.0
        ],
        "metallicFactor": 0.0,
        "roughnessFactor": 0.6
      }
    },
    {
      "doubleSided": true,
      "name": "lambert9",
      "pbrMetallicRoughness": {
        "baseColorFactor": [
          0.296774,
          0.191215,
          0.0524131,
          1.0
        ],
        "metallicFactor": 0.0,
        "roughnessFactor": 0.6
      }
    },
    {
      "doubleSided": true,
      "name": "lambert2",
      "pbrMetallicRoughness": {
        "baseColorFactor": [
          0.687,
          0.667578,
          0.586011,
          1.0
        ],
        "metallicFactor": 0.0,
        "roughnessFactor": 0.6
      }
    },
    {
      "doubleSided": true,
      "name": "lambert1",
      "pbrMetallicRoughness": {
        "baseColorFactor": [
          0.5,
          0.5,
          0.5,
          1.0
        ],
        "metallicFactor": 0.0,
        "roughnessFactor": 0.6
      }
    }
  ],
  "meshes": [
    {
      "name": "pCylinder19_standardSurface1_0",
      "primitives": [
        {
          "attributes": {
            "NORMAL": 1,
            "POSITION": 0,
            "TEXCOORD_0": 2
          },
          "indices": 3,
          "material": 0,
          "mode": 4
        }
      ]
    },
    {
      "name": "pCylinder19_lambert5_0",
      "primitives": [
        {
          "attributes": {
            "NORMAL": 5,
            "POSITION": 4,
            "TEXCOORD_0": 6
          },
          "indices": 7,
          "material": 1,
          "mode": 4
        }
      ]
    },
    {
      "name": "pCylinder19_lambert7_0",
      "primitives": [
        {
          "attributes": {
            "NORMAL": 9,
            "POSITION": 8,
            "TEXCOORD_0": 10
          },
          "indices": 11,
          "material": 2,
          "mode": 4
        }
      ]
    },
    {
      "name": "pCylinder19_lambert3_0",
      "primitives": [
        {
          "attributes": {
            "NORMAL": 13,
            "POSITION": 12,
            "TEXCOORD_0": 14
          },
          "indices": 15,
          "material": 3,
          "mode": 4
        }
      ]
    },
    {
      "name": "pCylinder19_lambert4_0",
      "primitives": [
        {
          "attributes": {
            "NORMAL": 17,
            "POSITION": 16,
            "TEXCOORD_0": 18
          },
          "indices": 19,
          "material": 4,
          "mode": 4
        }
      ]
    },
    {
      "name": "pCylinder19_lambert6_0",
      "primitives": [
        {
          "attributes": {
            "NORMAL": 21,
            "POSITION": 20,
            "TEXCOORD_0": 22
          },
          "indices": 23,
          "material": 5,
          "mode": 4
        }
      ]
    },
    {
      "name": "pCylinder19_lambert10_0",
      "primitives": [
        {
          "attributes": {
            "NORMAL": 25,
            "POSITION": 24,
            "TEXCOORD_0": 26
          },
          "indices": 27,
          "material": 6,
          "mode": 4
        }
      ]
    },
    {
      "name": "pCylinder19_lambert8_0",
      "primitives": [
        {
          "attributes": {
            "NORMAL": 29,
            "POSITION": 28,
            "TEXCOORD_0": 30
          },
          "indices": 31,
          "material": 7,
          "mode": 4
        }
      ]
    },
    {
      "name": "pCylinder19_lambert9_0",
      "primitives": [
        {
          "attributes": {
            "NORMAL": 33,
            "POSITION": 32,
            "TEXCOORD_0": 34
          },
          "indices": 35,
          "material": 8,
          "mode": 4
        }
      ]
    },
    {
      "name": "pCylinder19_lambert2_0",
      "primitives": [
        {
          "attributes": {
            "NORMAL": 37,
            "POSITION": 36,
            "TEXCOORD_0": 38
          },
          "indices": 39,
          "material": 9,
          "mode": 4
        }
      ]
    },
    {
      "name": "pCylinder19_lambert1_0",
      "primitives": [
        {
          "attributes": {
            "NORMAL": 41,
            "POSITION": 40,
            "TEXCOORD_0": 42
          },
          "indices": 43,
          "material": 10,
          "mode": 4
        }
      ]
    }
  ],
  "nodes": [
    {
      "children": [
        1
      ],
      "matrix": [
        1.0,
        0.0,
        0.0,
        0.0,
        0.0,
        2.220446049250313e-16,
        -1.0,
        0.0,
        0.0,
        1.0,
        2.220446049250313e-16,
        0.0,
        0.0,
        0.0,
        0.0,
        1.0
      ],
      "name": "Sketchfab_model"
    },
    {
      "children": [
        2
      ],
      "matrix": [
        0.009999999776482582,
        0.0,
        0.0,
        0.0,
        0.0,
        0.0,
        0.009999999776482582,
        0.0,
        0.0,
        -0.009999999776482582,
        0.0,
        0.0,
        0.0,
        0.0,
        0.0,
        1.0
      ],
      "name": "7d4cd4d2ed12479483cd07bbdc8d0e0d.fbx"
    },
    {
      "children": [
        3,
        15,
        18
      ],
      "name": "RootNode"
    },
    {
      "children": [
        4,
        5,
        6,
        7,
        8,
        9,
        10,
        11,
        12,
        13,
        14
      ],
      "name": "pCylinder19"
    },
    {
      "mesh": 0,
      "name": "pCylinder19_standardSurface1_0"
    },
    {
      "mesh": 1,
      "name": "pCylinder19_lambert5_0"
    },
    {
      "mesh": 2,
      "name": "pCylinder19_lambert7_0"
    },
    {
      "mesh": 3,
      "name": "pCylinder19_lambert3_0"
    },
    {
      "mesh": 4,
      "name": "pCylinder19_lambert4_0"
    },
    {
      "mesh": 5,
      "name": "pCylinder19_lambert6_0"
    },
    {
      "mesh": 6,
      "name": "pCylinder19_lambert10_0"
    },
    {
      "mesh": 7,
      "name": "pCylinder19_lambert8_0"
    },
    {
      "mesh": 8,
      "name": "pCylinder19_lambert9_0"
    },
    {
      "mesh": 9,
      "name": "pCylinder19_lambert2_0"
    },
    {
      "mesh": 10,
      "name": "pCylinder19_lambert1_0"
    },
    {
      "children": [
        16
      ],
      "matrix": [
        -0.014395698744983365,
        0.5300683122220765,
        -0.8478327360014373,
        0.0,
        0.7757258529233394,
        0.5409340503423313,
        0.3250226981098364,
        0.0,
        0.6309058289190246,
        -0.6530068434237726,
        -0.41897481723573726,
        0.0,
        1.6433370113372803,
        5.96466064453125,
        3.922701120376587,
        1.0
      ],
      "name": "directionalLight1"
    },
    {
      "children": [
        17
      ],
      "matrix": [
        1.0,
        0.0,
        0.0,
        0.0,
        0.0,
        2.220446049250313e-16,
        1.0,
        0.0,
        0.0,
        -1.0,
        2.220446049250313e-16,
        0.0,
        0.0,
        0.0,
        0.0,
        1.0
      ],
      "name": "Object_16"
    },
    {
      "name": "Object_17"
    },
    {
      "children": [
        19
      ],
      "matrix": [
        1.0,
        0.0,
        0.0,
        0.0,
        0.0,
        1.0,
        0.0,
        0.0,
        0.0,
        0.0,
        1.0,
        0.0,
        0.0,
        10.206403732299805,
        0.0,
        1.0
      ],
      "name": "ambientLight1"
    },
    {
      "children": [
        20
      ],
      "matrix": [
        1.0,
        0.0,
        0.0,
        0.0,
        0.0,
        2.220446049250313e-16,
        1.0,
        0.0,
        0.0,
        -1.0,
        2.220446049250313e-16,
        0.0,
        0.0,
        0.0,
        0.0,
        1.0
      ],
      "name": "Object_19"
    },
    {
      "name": "Object_20"
    }
  ],
  "scene": 0,
  "scenes": [
    {
      "name": "Sketchfab_Scene",
      "nodes": [
        0
      ]
    }
  ]
}
